<svg xmlns="http://www.w3.org/2000/svg" viewBox="0 0 1440 320"><path fill=" #88b8dc" fill-opacity="1" d="M0,96L21.8,101.3C43.6,107,87,117,131,149.3C174.5,181,218,235,262,250.7C305.5,267,349,245,393,218.7C436.4,192,480,160,524,170.7C567.3,181,611,235,655,224C698.2,213,742,139,785,112C829.1,85,873,107,916,122.7C960,139,1004,149,1047,154.7C1090.9,160,1135,160,1178,160C1221.8,160,1265,160,1309,181.3C1352.7,203,1396,245,1418,266.7L1440,288L1440,0L1418.2,0C1396.4,0,1353,0,1309,0C1265.5,0,1222,0,1178,0C1134.5,0,1091,0,1047,0C1003.6,0,960,0,916,0C872.7,0,829,0,785,0C741.8,0,698,0,655,0C610.9,0,567,0,524,0C480,0,436,0,393,0C349.1,0,305,0,262,0C218.2,0,175,0,131,0C87.3,0,44,0,22,0L0,0Z"></path></svg>
