<svg xmlns="http://www.w3.org/2000/svg" viewBox="0 0 1440 320"><path fill="#88B3B7" fill-opacity="1" d="M0,32L30,42.7C60,53,120,75,180,101.3C240,128,300,160,360,144C420,128,480,64,540,64C600,64,660,128,720,133.3C780,139,840,85,900,101.3C960,117,1020,203,1080,240C1140,277,1200,267,1260,240C1320,213,1380,171,1410,149.3L1440,128L1440,0L1410,0C1380,0,1320,0,1260,0C1200,0,1140,0,1080,0C1020,0,960,0,900,0C840,0,780,0,720,0C660,0,600,0,540,0C480,0,420,0,360,0C300,0,240,0,180,0C120,0,60,0,30,0L0,0Z"></path></svg>