<svg xmlns="http://www.w3.org/2000/svg" viewBox="0 0 1440 320"><path fill=" #88b8dc" fill-opacity="1" d="M0,96L21.8,101.3C43.6,107,87,117,131,149.3C174.5,181,218,235,262,250.7C305.5,267,349,245,393,218.7C436.4,192,480,160,524,170.7C567.3,181,611,235,655,224C698.2,213,742,139,785,112C829.1,85,873,107,916,122.7C960,139,1004,149,1047,154.7C1090.9,160,1135,160,1178,160C1221.8,160,1265,160,1309,181.3C1352.7,203,1396,245,1418,266.7L1440,288L1440,320L1418.2,320C1396.4,320,1353,320,1309,320C1265.5,320,1222,320,1178,320C1134.5,320,1091,320,1047,320C1003.6,320,960,320,916,320C872.7,320,829,320,785,320C741.8,320,698,320,655,320C610.9,320,567,320,524,320C480,320,436,320,393,320C349.1,320,305,320,262,320C218.2,320,175,320,131,320C87.3,320,44,320,22,320L0,320Z"></path></svg>
