<svg xmlns="http://www.w3.org/2000/svg" viewBox="0 0 1440 320"><path fill="#88B3B7" fill-opacity="1" d="M0,64L34.3,53.3C68.6,43,137,21,206,32C274.3,43,343,85,411,90.7C480,96,549,64,617,58.7C685.7,53,754,75,823,117.3C891.4,160,960,224,1029,229.3C1097.1,235,1166,181,1234,149.3C1302.9,117,1371,107,1406,101.3L1440,96L1440,320L1405.7,320C1371.4,320,1303,320,1234,320C1165.7,320,1097,320,1029,320C960,320,891,320,823,320C754.3,320,686,320,617,320C548.6,320,480,320,411,320C342.9,320,274,320,206,320C137.1,320,69,320,34,320L0,320Z"></path></svg>